name rise37.2698peak67.6939fall79.5734.mot
datacolumns 19
datarows 33
range 13.00495400000000 13.05829900000000
endheader
time	ground_force1_vx	ground_force1_vy	ground_force1_vz	ground_force1_px	ground_force1_py	ground_force1_pz	ground_force2_vx	ground_force2_vy	ground_force2_vz	ground_force2_px	ground_force2_py	ground_force2_pz	ground_torque1_x	ground_torque1_y	ground_torque1_z	ground_torque2_x	ground_torque2_y	ground_torque2_z	
13.00495400000000	58.96252700000000	784.29237499999999	61.31171400000000	0.29819800000000	0.00000000000000	0.11473100000000	0.00000000000000	0.00000000000000	0.00000000000000	0.00000000000000	0.00000000000000	0.00000000000000	0.00000000000000	21.98005400000000	0.00000000000000	0.00000000000000	0.00000000000000	0.00000000000000	
13.00662400000000	58.14875900000000	786.00094500000000	61.29006000000000	0.29720400000000	0.00000000000000	0.11475000000000	0.00000000000000	0.00000000000000	0.00000000000000	0.00000000000000	0.00000000000000	0.00000000000000	0.00000000000000	21.97966500000000	0.00000000000000	0.00000000000000	0.00000000000000	0.00000000000000	
13.00828600000000	57.33876400000000	787.57688199999996	61.26701200000000	0.29622300000000	0.00000000000000	0.11477000000000	0.00000000000000	0.00000000000000	0.00000000000000	0.00000000000000	0.00000000000000	0.00000000000000	0.00000000000000	21.97965400000000	0.00000000000000	0.00000000000000	0.00000000000000	0.00000000000000	
13.00996000000000	56.53291600000000	789.01994500000001	61.24269300000000	0.29525600000000	0.00000000000000	0.11479000000000	0.00000000000000	0.00000000000000	0.00000000000000	0.00000000000000	0.00000000000000	0.00000000000000	0.00000000000000	21.97998100000000	0.00000000000000	0.00000000000000	0.00000000000000	0.00000000000000	
13.01162200000000	55.73152700000000	790.33003599999995	61.21715900000000	0.29429900000000	0.00000000000000	0.11481100000000	0.00000000000000	0.00000000000000	0.00000000000000	0.00000000000000	0.00000000000000	0.00000000000000	0.00000000000000	21.98056800000000	0.00000000000000	0.00000000000000	0.00000000000000	0.00000000000000	
13.01328600000000	54.93484300000000	791.50720799999999	61.19039600000000	0.29335100000000	0.00000000000000	0.11483300000000	0.00000000000000	0.00000000000000	0.00000000000000	0.00000000000000	0.00000000000000	0.00000000000000	0.00000000000000	21.98130300000000	0.00000000000000	0.00000000000000	0.00000000000000	0.00000000000000	
13.01495800000000	54.14305800000000	792.55167400000005	61.16233000000000	0.29241000000000	0.00000000000000	0.11485600000000	0.00000000000000	0.00000000000000	0.00000000000000	0.00000000000000	0.00000000000000	0.00000000000000	0.00000000000000	21.98204200000000	0.00000000000000	0.00000000000000	0.00000000000000	0.00000000000000	
13.01663400000000	53.35631100000000	793.46381499999995	61.13282700000000	0.29147400000000	0.00000000000000	0.11488000000000	0.00000000000000	0.00000000000000	0.00000000000000	0.00000000000000	0.00000000000000	0.00000000000000	0.00000000000000	21.98261000000000	0.00000000000000	0.00000000000000	0.00000000000000	0.00000000000000	
13.01828600000000	52.57469600000000	794.24418500000002	61.10169900000000	0.29054100000000	0.00000000000000	0.11490600000000	0.00000000000000	0.00000000000000	0.00000000000000	0.00000000000000	0.00000000000000	0.00000000000000	0.00000000000000	21.98280800000000	0.00000000000000	0.00000000000000	0.00000000000000	0.00000000000000	
13.01995700000000	51.79826000000000	794.89352299999996	61.06871100000000	0.28961000000000	0.00000000000000	0.11493200000000	0.00000000000000	0.00000000000000	0.00000000000000	0.00000000000000	0.00000000000000	0.00000000000000	0.00000000000000	21.98241300000000	0.00000000000000	0.00000000000000	0.00000000000000	0.00000000000000	
13.02162100000000	51.02701400000000	795.41275099999996	61.03358400000000	0.28867700000000	0.00000000000000	0.11496100000000	0.00000000000000	0.00000000000000	0.00000000000000	0.00000000000000	0.00000000000000	0.00000000000000	0.00000000000000	21.98118200000000	0.00000000000000	0.00000000000000	0.00000000000000	0.00000000000000	
13.02328400000000	50.26093500000000	795.80298200000004	60.99599900000000	0.28774200000000	0.00000000000000	0.11499000000000	0.00000000000000	0.00000000000000	0.00000000000000	0.00000000000000	0.00000000000000	0.00000000000000	0.00000000000000	21.97885600000000	0.00000000000000	0.00000000000000	0.00000000000000	0.00000000000000	
13.02494800000000	49.49997000000000	796.06552399999998	60.95560600000000	0.28680200000000	0.00000000000000	0.11502100000000	0.00000000000000	0.00000000000000	0.00000000000000	0.00000000000000	0.00000000000000	0.00000000000000	0.00000000000000	21.97516100000000	0.00000000000000	0.00000000000000	0.00000000000000	0.00000000000000	
13.02661700000000	48.74404000000000	796.20188099999996	60.91202500000000	0.28585600000000	0.00000000000000	0.11505400000000	0.00000000000000	0.00000000000000	0.00000000000000	0.00000000000000	0.00000000000000	0.00000000000000	0.00000000000000	21.96981400000000	0.00000000000000	0.00000000000000	0.00000000000000	0.00000000000000	
13.02828400000000	47.99304700000000	796.21375399999999	60.86485700000000	0.28490200000000	0.00000000000000	0.11508800000000	0.00000000000000	0.00000000000000	0.00000000000000	0.00000000000000	0.00000000000000	0.00000000000000	0.00000000000000	21.96252500000000	0.00000000000000	0.00000000000000	0.00000000000000	0.00000000000000	
13.02995100000000	47.24687600000000	796.10303999999996	60.81368400000000	0.28393800000000	0.00000000000000	0.11512400000000	0.00000000000000	0.00000000000000	0.00000000000000	0.00000000000000	0.00000000000000	0.00000000000000	0.00000000000000	21.95299900000000	0.00000000000000	0.00000000000000	0.00000000000000	0.00000000000000	
13.03162000000000	46.50540200000000	795.87183600000003	60.75807800000000	0.28296300000000	0.00000000000000	0.11516200000000	0.00000000000000	0.00000000000000	0.00000000000000	0.00000000000000	0.00000000000000	0.00000000000000	0.00000000000000	21.94094100000000	0.00000000000000	0.00000000000000	0.00000000000000	0.00000000000000	
13.03328600000000	45.76849100000000	795.52243199999998	60.69760500000000	0.28197500000000	0.00000000000000	0.11520100000000	0.00000000000000	0.00000000000000	0.00000000000000	0.00000000000000	0.00000000000000	0.00000000000000	0.00000000000000	21.92606000000000	0.00000000000000	0.00000000000000	0.00000000000000	0.00000000000000	
13.03495500000000	45.03600400000000	795.05731200000002	60.63183100000000	0.28097300000000	0.00000000000000	0.11524200000000	0.00000000000000	0.00000000000000	0.00000000000000	0.00000000000000	0.00000000000000	0.00000000000000	0.00000000000000	21.90806900000000	0.00000000000000	0.00000000000000	0.00000000000000	0.00000000000000	
13.03662300000000	44.30780400000000	794.47914800000001	60.56032500000000	0.27995600000000	0.00000000000000	0.11528500000000	0.00000000000000	0.00000000000000	0.00000000000000	0.00000000000000	0.00000000000000	0.00000000000000	0.00000000000000	21.88668900000000	0.00000000000000	0.00000000000000	0.00000000000000	0.00000000000000	
13.03828400000000	43.58375700000000	793.79079700000000	60.48266700000000	0.27892200000000	0.00000000000000	0.11532900000000	0.00000000000000	0.00000000000000	0.00000000000000	0.00000000000000	0.00000000000000	0.00000000000000	0.00000000000000	21.86165300000000	0.00000000000000	0.00000000000000	0.00000000000000	0.00000000000000	
13.03994900000000	42.86373500000000	792.99529500000006	60.39845000000000	0.27787000000000	0.00000000000000	0.11537500000000	0.00000000000000	0.00000000000000	0.00000000000000	0.00000000000000	0.00000000000000	0.00000000000000	0.00000000000000	21.83270900000000	0.00000000000000	0.00000000000000	0.00000000000000	0.00000000000000	
13.04161700000000	42.14761800000000	792.09585100000004	60.30728700000000	0.27680000000000	0.00000000000000	0.11542300000000	0.00000000000000	0.00000000000000	0.00000000000000	0.00000000000000	0.00000000000000	0.00000000000000	0.00000000000000	21.79962000000000	0.00000000000000	0.00000000000000	0.00000000000000	0.00000000000000	
13.04329100000000	41.43530100000000	791.09583799999996	60.20881300000000	0.27571100000000	0.00000000000000	0.11547200000000	0.00000000000000	0.00000000000000	0.00000000000000	0.00000000000000	0.00000000000000	0.00000000000000	0.00000000000000	21.76216900000000	0.00000000000000	0.00000000000000	0.00000000000000	0.00000000000000	
13.04495200000000	40.72669300000000	789.99878999999999	60.10268800000000	0.27460200000000	0.00000000000000	0.11552300000000	0.00000000000000	0.00000000000000	0.00000000000000	0.00000000000000	0.00000000000000	0.00000000000000	0.00000000000000	21.72015800000000	0.00000000000000	0.00000000000000	0.00000000000000	0.00000000000000	
13.04662300000000	40.02171700000000	788.80838900000003	59.98860400000000	0.27347300000000	0.00000000000000	0.11557500000000	0.00000000000000	0.00000000000000	0.00000000000000	0.00000000000000	0.00000000000000	0.00000000000000	0.00000000000000	21.67341500000000	0.00000000000000	0.00000000000000	0.00000000000000	0.00000000000000	
13.04829100000000	39.32031700000000	787.52845900000000	59.86628700000000	0.27232300000000	0.00000000000000	0.11562900000000	0.00000000000000	0.00000000000000	0.00000000000000	0.00000000000000	0.00000000000000	0.00000000000000	0.00000000000000	21.62179000000000	0.00000000000000	0.00000000000000	0.00000000000000	0.00000000000000	
13.04995600000000	38.62245600000000	786.16295300000002	59.73549800000000	0.27115200000000	0.00000000000000	0.11568500000000	0.00000000000000	0.00000000000000	0.00000000000000	0.00000000000000	0.00000000000000	0.00000000000000	0.00000000000000	21.56516000000000	0.00000000000000	0.00000000000000	0.00000000000000	0.00000000000000	
13.05161700000000	37.92811900000000	784.71594600000003	59.59603700000000	0.26996100000000	0.00000000000000	0.11574100000000	0.00000000000000	0.00000000000000	0.00000000000000	0.00000000000000	0.00000000000000	0.00000000000000	0.00000000000000	21.50342900000000	0.00000000000000	0.00000000000000	0.00000000000000	0.00000000000000	
13.05328100000000	37.23731100000000	783.19162500000004	59.44774400000000	0.26874900000000	0.00000000000000	0.11579900000000	0.00000000000000	0.00000000000000	0.00000000000000	0.00000000000000	0.00000000000000	0.00000000000000	0.00000000000000	21.43653000000000	0.00000000000000	0.00000000000000	0.00000000000000	0.00000000000000	
13.05495500000000	36.55006200000000	781.59427500000004	59.29050300000000	0.26751700000000	0.00000000000000	0.11585800000000	0.00000000000000	0.00000000000000	0.00000000000000	0.00000000000000	0.00000000000000	0.00000000000000	0.00000000000000	21.36442400000000	0.00000000000000	0.00000000000000	0.00000000000000	0.00000000000000	
13.05663800000000	35.86642400000000	779.92826900000000	59.12424100000000	0.26626500000000	0.00000000000000	0.11591800000000	0.00000000000000	0.00000000000000	0.00000000000000	0.00000000000000	0.00000000000000	0.00000000000000	0.00000000000000	21.28710100000000	0.00000000000000	0.00000000000000	0.00000000000000	0.00000000000000	
13.05829900000000	35.18647000000000	778.19805799999995	58.94893000000000	0.26499400000000	0.00000000000000	0.11597900000000	0.00000000000000	0.00000000000000	0.00000000000000	0.00000000000000	0.00000000000000	0.00000000000000	0.00000000000000	21.20458200000000	0.00000000000000	0.00000000000000	0.00000000000000	0.00000000000000	
